<?xml version="1.0" encoding="UTF-8" standalone="no"?>
<svg
   id="b3df86d2-2022-47c6-a781-bb5144daf06b"
   data-name="Layer 1"
   width="802.02697"
   height="590.91632"
   viewBox="0 0 802.02697 590.91632"
   version="1.1"
   sodipodi:docname="relaxing.svg"
   inkscape:version="1.1 (c4e8f9e, 2021-05-24)"
   xmlns:inkscape="http://www.inkscape.org/namespaces/inkscape"
   xmlns:sodipodi="http://sodipodi.sourceforge.net/DTD/sodipodi-0.dtd"
   xmlns="http://www.w3.org/2000/svg"
   xmlns:svg="http://www.w3.org/2000/svg"
   xmlns:rdf="http://www.w3.org/1999/02/22-rdf-syntax-ns#"
   xmlns:cc="http://creativecommons.org/ns#"
   xmlns:dc="http://purl.org/dc/elements/1.1/">
  <defs
     id="defs605" />
  <sodipodi:namedview
     id="namedview603"
     pagecolor="#ffffff"
     bordercolor="#666666"
     borderopacity="1.0"
     inkscape:pageshadow="2"
     inkscape:pageopacity="0.0"
     inkscape:pagecheckerboard="0"
     showgrid="false"
     inkscape:zoom="1.2167543"
     inkscape:cx="400.65606"
     inkscape:cy="295.45816"
     inkscape:window-width="1296"
     inkscape:window-height="1003"
     inkscape:window-x="0"
     inkscape:window-y="23"
     inkscape:window-maximized="0"
     inkscape:current-layer="b3df86d2-2022-47c6-a781-bb5144daf06b" />
  <title
     id="title454">researching</title>
  <rect
     x="432.9595"
     y="257.13303"
     width="168.56073"
     height="4.9444499"
     fill="#e6e6e6"
     id="rect456"
     style="stroke-width:0.5" />
  <rect
     x="446.89386"
     y="215.77945"
     width="42.702049"
     height="42.702049"
     fill="#e6e6e6"
     id="rect458"
     style="stroke-width:0.5" />
  <rect
     x="455.43427"
     y="224.31987"
     width="25.621229"
     height="25.621229"
     fill="#cccccc"
     id="rect460"
     style="stroke-width:0.5" />
  <rect
     x="542.63635"
     y="215.77945"
     width="10.787885"
     height="42.702049"
     fill="#e6e6e6"
     id="rect462"
     style="stroke-width:0.5" />
  <rect
     x="542.63635"
     y="222.52188"
     width="10.787885"
     height="4.9444499"
     fill="#cccccc"
     id="rect464"
     style="stroke-width:0.5" />
  <rect
     x="542.63635"
     y="244.09766"
     width="10.787885"
     height="4.9444499"
     fill="#cccccc"
     id="rect466"
     style="stroke-width:0.5" />
  <rect
     x="526.005"
     y="215.77945"
     width="10.787885"
     height="42.702049"
     fill="#e6e6e6"
     id="rect468"
     style="stroke-width:0.5" />
  <rect
     x="526.005"
     y="222.52188"
     width="10.787885"
     height="4.9444499"
     fill="#cccccc"
     id="rect470"
     style="stroke-width:0.5" />
  <rect
     x="526.005"
     y="244.09766"
     width="10.787885"
     height="4.9444499"
     fill="#cccccc"
     id="rect472"
     style="stroke-width:0.5" />
  <rect
     x="397.84885"
     y="442.89233"
     width="10.787885"
     height="42.702049"
     transform="rotate(-26.3396)"
     fill="#e6e6e6"
     id="rect474"
     style="stroke-width:0.5" />
  <rect
     x="397.84885"
     y="449.63474"
     width="10.787885"
     height="4.9444499"
     transform="rotate(-26.3396)"
     fill="#cccccc"
     id="rect476"
     style="stroke-width:0.5" />
  <rect
     x="397.84888"
     y="471.21051"
     width="10.787885"
     height="4.9444499"
     transform="rotate(-26.3396)"
     fill="#cccccc"
     id="rect478"
     style="stroke-width:0.5" />
  <polygon
     points="535.554,189.201 546.419,208.02 524.688,208.02 502.958,208.02 513.823,189.201 524.688,170.382 "
     fill="#e6e6e6"
     id="polygon480"
     transform="matrix(0.5,0,0,0.5,200.50674,147.72909)" />
  <polygon
     points="554.432,192.797 565.298,211.616 543.567,211.616 521.837,211.616 532.702,192.797 543.567,173.978 "
     fill="#e6e6e6"
     id="polygon482"
     transform="matrix(0.5,0,0,0.5,200.50674,147.72909)" />
  <circle
     cx="476.11105"
     cy="228.81482"
     r="3.1464651"
     fill="#e6e6e6"
     id="circle484"
     style="stroke-width:0.5" />
  <rect
     x="-601.5202"
     y="-194.20369"
     width="168.56073"
     height="4.9444499"
     transform="scale(-1)"
     fill="#e6e6e6"
     id="rect486"
     style="stroke-width:0.5" />
  <rect
     x="-587.58588"
     y="-190.60773"
     width="42.702049"
     height="42.702049"
     transform="scale(-1)"
     fill="#e6e6e6"
     id="rect488"
     style="stroke-width:0.5" />
  <rect
     x="-579.04547"
     y="-182.06732"
     width="25.621229"
     height="25.621229"
     transform="scale(-1)"
     fill="#cccccc"
     id="rect490"
     style="stroke-width:0.5" />
  <rect
     x="-491.84335"
     y="-190.60773"
     width="10.787885"
     height="42.702049"
     transform="scale(-1)"
     fill="#e6e6e6"
     id="rect492"
     style="stroke-width:0.5" />
  <rect
     x="-491.84335"
     y="-159.59254"
     width="10.787885"
     height="4.9444499"
     transform="scale(-1)"
     fill="#cccccc"
     id="rect494"
     style="stroke-width:0.5" />
  <rect
     x="-491.84335"
     y="-181.16832"
     width="10.787885"
     height="4.9444499"
     transform="scale(-1)"
     fill="#cccccc"
     id="rect496"
     style="stroke-width:0.5" />
  <rect
     x="-508.4747"
     y="-190.60773"
     width="10.787885"
     height="42.702049"
     transform="scale(-1)"
     fill="#e6e6e6"
     id="rect498"
     style="stroke-width:0.5" />
  <rect
     x="-508.4747"
     y="-159.59254"
     width="10.787885"
     height="4.9444499"
     transform="scale(-1)"
     fill="#cccccc"
     id="rect500"
     style="stroke-width:0.5" />
  <rect
     x="-508.4747"
     y="-181.16832"
     width="10.787885"
     height="4.9444499"
     transform="scale(-1)"
     fill="#cccccc"
     id="rect502"
     style="stroke-width:0.5" />
  <rect
     x="-499.11618"
     y="34.221794"
     width="10.787885"
     height="42.702049"
     transform="rotate(-153.6604)"
     fill="#e6e6e6"
     id="rect504"
     style="stroke-width:0.5" />
  <rect
     x="-499.11618"
     y="65.236969"
     width="10.787885"
     height="4.9444499"
     transform="rotate(-153.6604)"
     fill="#cccccc"
     id="rect506"
     style="stroke-width:0.5" />
  <rect
     x="-499.11618"
     y="43.66119"
     width="10.787885"
     height="4.9444499"
     transform="rotate(-153.6604)"
     fill="#cccccc"
     id="rect508"
     style="stroke-width:0.5" />
  <polygon
     points="731.379,53.453 720.514,72.272 742.244,72.272 763.975,72.272 753.109,53.453 742.244,34.634 "
     fill="#e6e6e6"
     id="polygon510"
     transform="matrix(0.5,0,0,0.5,200.50674,147.72909)" />
  <polygon
     points="712.5,57.049 701.635,75.868 723.365,75.868 745.096,75.868 734.231,57.049 723.365,38.23 "
     fill="#e6e6e6"
     id="polygon512"
     transform="matrix(0.5,0,0,0.5,200.50674,147.72909)" />
  <circle
     cx="558.36865"
     cy="160.94102"
     r="3.1464651"
     fill="#e6e6e6"
     id="circle514"
     style="stroke-width:0.5" />
  <rect
     x="-601.5202"
     y="-329.95126"
     width="168.56073"
     height="4.9444499"
     transform="scale(-1)"
     fill="#e6e6e6"
     id="rect516"
     style="stroke-width:0.5" />
  <rect
     x="-587.58588"
     y="-326.35529"
     width="42.702049"
     height="42.702049"
     transform="scale(-1)"
     fill="#e6e6e6"
     id="rect518"
     style="stroke-width:0.5" />
  <rect
     x="-579.04547"
     y="-317.81488"
     width="25.621229"
     height="25.621229"
     transform="scale(-1)"
     fill="#cccccc"
     id="rect520"
     style="stroke-width:0.5" />
  <rect
     x="-491.84335"
     y="-326.35529"
     width="10.787885"
     height="42.702049"
     transform="scale(-1)"
     fill="#e6e6e6"
     id="rect522"
     style="stroke-width:0.5" />
  <rect
     x="-491.84335"
     y="-295.34012"
     width="10.787885"
     height="4.9444499"
     transform="scale(-1)"
     fill="#cccccc"
     id="rect524"
     style="stroke-width:0.5" />
  <rect
     x="-491.84335"
     y="-316.91589"
     width="10.787885"
     height="4.9444499"
     transform="scale(-1)"
     fill="#cccccc"
     id="rect526"
     style="stroke-width:0.5" />
  <rect
     x="-508.4747"
     y="-326.35529"
     width="10.787885"
     height="42.702049"
     transform="scale(-1)"
     fill="#e6e6e6"
     id="rect528"
     style="stroke-width:0.5" />
  <rect
     x="-508.4747"
     y="-295.34012"
     width="10.787885"
     height="4.9444499"
     transform="scale(-1)"
     fill="#cccccc"
     id="rect530"
     style="stroke-width:0.5" />
  <rect
     x="-508.4747"
     y="-316.91589"
     width="10.787885"
     height="4.9444499"
     transform="scale(-1)"
     fill="#cccccc"
     id="rect532"
     style="stroke-width:0.5" />
  <rect
     x="-559.34613"
     y="-87.432465"
     width="10.787885"
     height="42.702049"
     transform="rotate(-153.6604)"
     fill="#e6e6e6"
     id="rect534"
     style="stroke-width:0.5" />
  <rect
     x="-559.34613"
     y="-56.417294"
     width="10.787885"
     height="4.9444499"
     transform="rotate(-153.6604)"
     fill="#cccccc"
     id="rect536"
     style="stroke-width:0.5" />
  <rect
     x="-559.34607"
     y="-77.993057"
     width="10.787885"
     height="4.9444499"
     transform="rotate(-153.6604)"
     fill="#cccccc"
     id="rect538"
     style="stroke-width:0.5" />
  <polygon
     points="731.379,324.948 720.514,343.768 742.244,343.768 763.975,343.768 753.109,324.948 742.244,306.129 "
     fill="#e6e6e6"
     id="polygon540"
     transform="matrix(0.5,0,0,0.5,200.50674,147.72909)" />
  <polygon
     points="712.5,328.544 701.635,347.364 723.365,347.364 745.096,347.364 734.231,328.544 723.365,309.725 "
     fill="#e6e6e6"
     id="polygon542"
     transform="matrix(0.5,0,0,0.5,200.50674,147.72909)" />
  <circle
     cx="558.36865"
     cy="296.6886"
     r="3.1464651"
     fill="#e6e6e6"
     id="circle544"
     style="stroke-width:0.5" />
  <ellipse
     cx="399.07147"
     cy="429.08466"
     rx="198.56471"
     ry="14.10261"
     fill="#e6e6e6"
     id="ellipse546"
     style="stroke-width:0.5" />
  <path
     d="m 554.20015,436.9821 c -32.37758,-5.7627 -67.78372,-4.80474 -104.92341,0 16.92772,-14.29065 31.53731,-28.58127 14.60959,-42.87192 33.01964,6.812 37.64459,6.12254 74.37608,0 -8.51965,14.29065 7.41807,28.58127 15.93774,42.87192 z"
     fill="#6c63ff"
     id="path548"
     style="stroke-width:0.5" />
  <path
     d="m 554.20015,436.9821 c -32.37758,-5.7627 -67.78372,-4.80474 -104.92341,0 16.92772,-14.29065 31.53731,-28.58127 14.60959,-42.87192 33.01964,6.812 37.64459,6.12254 74.37608,0 -8.51965,14.29065 7.41807,28.58127 15.93774,42.87192 z"
     opacity="0.2"
     id="path550"
     style="stroke-width:0.5" />
  <path
     d="m 546.30269,430.88525 c -27.50353,-4.59991 -57.57972,-3.83525 -89.1285,0 14.37947,-11.40708 26.78979,-22.81416 12.41029,-34.22125 28.04894,5.4375 31.97767,4.88714 63.17969,0 -7.23711,11.40709 6.30139,22.81417 13.53852,34.22125 z"
     fill="#6c63ff"
     id="path552"
     style="stroke-width:0.5" />
  <circle
     cx="535.8269"
     cy="397.85114"
     r="14.654545"
     fill="#2f2e41"
     id="circle554"
     style="stroke-width:0.5" />
  <polygon
     points="557.899,469.634 568.053,498.967 538.72,517.019 504.873,466.249 536.463,466.249 537.591,466.249 "
     fill="#a0616a"
     id="polygon556"
     transform="matrix(0.5,0,0,0.5,200.50674,147.72909)" />
  <circle
     cx="498.07178"
     cy="379.72552"
     r="23.692381"
     fill="#a0616a"
     id="circle558"
     style="stroke-width:0.5" />
  <path
     d="m 367.19957,293.41756 c 0,0 -57.53864,6.20514 -67.6925,5.07694 -10.15386,-1.12821 -14.66671,-2.25642 -14.66671,-2.25642 0,0 -6.76926,9.02567 -3.38463,12.9744 a 24.410965,24.410965 0 0 0 6.76925,5.64104 c 0,0 6.20515,-1.69231 10.718,0 4.51286,1.69232 50.20529,9.02567 58.10275,2.25642 7.89746,-6.76925 10.15384,-23.69238 10.15384,-23.69238 z"
     fill="#2f2e41"
     id="path560"
     style="stroke-width:0.5" />
  <path
     d="m 371.1483,419.21282 c 0,0 -37.795,-10.718 -44.56424,-58.10275 v -4.51283 c 0,0 -7.47808,13.11914 -10.15388,15.79493 -3.10258,3.10257 -14.10261,31.02574 -13.5385,33.84626 0.56411,2.82052 0,3.94873 0,3.94873 l -16.35903,-1.69231 v -5.07695 c 0,0 8.74362,-26.23085 9.30773,-32.436 0.5641,-6.20515 21.718,-49.35913 21.718,-49.35913 0,0 7.89746,-16.35902 21.43596,0 13.53851,16.35903 14.66671,27.64111 14.66671,27.64111 l 17.48724,33.84626 z"
     fill="#2f2e41"
     id="path562"
     style="stroke-width:0.5" />
  <path
     d="m 286.53265,294.54577 -18.05134,-6.20515 c 0,0 -16.92313,-12.4103 -12.9744,0 3.94873,12.41029 22.00007,39.4873 27.077,36.66678 5.07694,-2.82052 11.18276,-9.82159 9.82216,-10.83389 -1.36059,-1.0123 -10.38626,-8.34566 -5.87342,-19.62774 z"
     fill="#2f2e41"
     id="path564"
     style="stroke-width:0.5" />
  <path
     d="m 288.71458,400.08755 -14.5719,7.1165 c 0,0 -17.62183,2.71105 -7.79427,7.79427 9.82756,5.08323 36.93807,10.50532 38.2936,5.761 1.35552,-4.74432 0.8177,-12.6182 -0.60779,-12.40896 -1.4255,0.20923 -11.25306,1.22587 -15.31964,-8.26281 z"
     fill="#2f2e41"
     id="path566"
     style="stroke-width:0.5" />
  <path
     d="m 363.81494,381.98193 c 0,0 -7.33336,31.58985 5.07694,38.3591 12.41029,6.76925 99.28236,7.89746 106.0516,-4.51286 6.76925,-12.41031 3.38463,-12.41029 3.38463,-12.41029 l -18.05134,-20.30776 14.66671,-1.12819 c 0,0 0,-4.51283 -5.07693,-5.07693 -5.07694,-0.5641 -20.87186,-6.20515 -34.41037,-2.25642 -13.5385,3.94873 -21.43596,-7.89746 -21.43596,-7.89746 z"
     fill="#575a89"
     id="path568"
     style="stroke-width:0.5" />
  <polygon
     points="288.257,375.993 420.258,360.198 443.95,265.428 307.437,271.069 "
     fill="#3f3d56"
     id="polygon570"
     transform="matrix(0.5,0,0,0.5,200.50674,147.72909)" />
  <polygon
     points="295.591,368.659 415.745,354.557 438.873,269.377 311.386,275.018 "
     fill="#ffffff"
     id="polygon572"
     transform="matrix(0.5,0,0,0.5,200.50674,147.72909)" />
  <polygon
     points="288.257,375.993 286.001,380.505 322.104,480.916 325.499,479.618 326.616,473.019 292.77,377.121 "
     fill="#b3b3b3"
     id="polygon574"
     transform="matrix(0.5,0,0,0.5,200.50674,147.72909)" />
  <polygon
     points="324.36,479.788 460.873,459.48 420.258,360.198 288.257,374.864 "
     fill="#d0cde1"
     id="polygon576"
     transform="matrix(0.5,0,0,0.5,200.50674,147.72909)" />
  <polygon
     points="306.309,377.121 406.719,365.839 405.591,360.198 306.309,371.48 "
     fill="#3f3d56"
     id="polygon578"
     transform="matrix(0.5,0,0,0.5,200.50674,147.72909)" />
  <polygon
     points="324.36,426.762 427.027,414.352 408.976,372.608 308.565,382.762 "
     fill="#3f3d56"
     id="polygon580"
     transform="matrix(0.5,0,0,0.5,200.50674,147.72909)" />
  <path
     d="m 419.09716,370.13574 -1.69231,-4.51283 c 0,0 -12.9744,-22.56417 -19.74365,-18.05134 -6.76926,4.51284 14.10261,26.5129 14.10261,26.5129 h 6.76925 z"
     fill="#a0616a"
     id="path582"
     style="stroke-width:0.5" />
  <path
     d="m 376.22523,373.52037 -1.69231,-6.76925 c 0,0 -4.51283,-20.87186 3.38463,-19.74365 7.89746,1.12821 10.15388,20.87186 10.15388,20.87186 l -0.56411,4.51283 z"
     fill="#a0616a"
     id="path584"
     style="stroke-width:0.5" />
  <path
     d="m 389.76374,370.69985 c 0,0 -14.66671,-2.25642 -15.23082,1.12821 -0.5641,3.38462 -3.38462,54.154 10.718,55.84632 14.10263,1.69233 84.05155,9.02567 76.71819,-8.46156 C 454.63576,401.72558 443.35367,403.982 443.35367,403.982 l -47.94889,5.07694 z"
     fill="#575a89"
     id="path586"
     style="stroke-width:0.5" />
  <polygon
     points="437.181,438.044 417.437,453.275 442.258,480.352 467.078,458.916 "
     fill="#575a89"
     id="polygon588"
     transform="matrix(0.5,0,0,0.5,200.50674,147.72909)" />
  <polygon
     points="391.488,522.096 469.335,517.583 401.642,516.455 386.976,479.224 "
     opacity="0.2"
     id="polygon590"
     transform="matrix(0.5,0,0,0.5,200.50674,147.72909)" />
  <circle
     cx="509.76706"
     cy="384.03049"
     r="28.205215"
     fill="#2f2e41"
     id="circle592"
     style="stroke-width:0.5" />
  <polygon
     points="398.258,305.301 405.027,279.531 332.822,281.71 328.309,307.736 "
     fill="#6c63ff"
     id="polygon594"
     transform="matrix(0.5,0,0,0.5,200.50674,147.72909)" />
  <polygon
     points="416.309,319.018 417.437,314.505 311.386,318.239 310.258,322.403 "
     fill="#e6e6e6"
     id="polygon596"
     transform="matrix(0.5,0,0,0.5,200.50674,147.72909)" />
  <polygon
     points="414.053,330.3 415.181,325.787 309.129,329.521 308.001,333.685 "
     fill="#e6e6e6"
     id="polygon598"
     transform="matrix(0.5,0,0,0.5,200.50674,147.72909)" />
  <polygon
     points="412.924,339.326 414.053,334.813 308.001,338.546 306.873,342.71 "
     fill="#e6e6e6"
     id="polygon600"
     transform="matrix(0.5,0,0,0.5,200.50674,147.72909)" />
  <metadata
     id="metadata623">
    <rdf:RDF>
      <cc:Work
         rdf:about="">
        <dc:title>researching</dc:title>
      </cc:Work>
    </rdf:RDF>
  </metadata>
</svg>
