<?xml version="1.0" encoding="UTF-8" standalone="no"?>
<svg
   id="b3df86d2-2022-47c6-a781-bb5144daf06b"
   data-name="Layer 1"
   width="401.01349"
   height="295.45816"
   viewBox="0 0 401.01349 295.45816"
   version="1.1"
   sodipodi:docname="relaxing.svg"
   inkscape:version="1.1 (c4e8f9e, 2021-05-24)"
   xmlns:inkscape="http://www.inkscape.org/namespaces/inkscape"
   xmlns:sodipodi="http://sodipodi.sourceforge.net/DTD/sodipodi-0.dtd"
   xmlns="http://www.w3.org/2000/svg"
   xmlns:svg="http://www.w3.org/2000/svg"
   xmlns:rdf="http://www.w3.org/1999/02/22-rdf-syntax-ns#"
   xmlns:cc="http://creativecommons.org/ns#"
   xmlns:dc="http://purl.org/dc/elements/1.1/">
  <defs
     id="defs605" />
  <sodipodi:namedview
     id="namedview603"
     pagecolor="#ffffff"
     bordercolor="#666666"
     borderopacity="1.0"
     inkscape:pageshadow="2"
     inkscape:pageopacity="0.0"
     inkscape:pagecheckerboard="0"
     showgrid="false"
     inkscape:zoom="0.74642639"
     inkscape:cx="90.430886"
     inkscape:cy="177.51248"
     inkscape:window-width="1296"
     inkscape:window-height="1003"
     inkscape:window-x="0"
     inkscape:window-y="23"
     inkscape:window-maximized="0"
     inkscape:current-layer="b3df86d2-2022-47c6-a781-bb5144daf06b"
     fit-margin-top="0"
     fit-margin-left="0"
     fit-margin-right="0"
     fit-margin-bottom="0" />
  <title
     id="title454">researching</title>
  <rect
     x="232.45274"
     y="109.40392"
     width="168.56073"
     height="4.9444499"
     fill="#e6e6e6"
     id="rect456"
     style="stroke-width:0.5" />
  <rect
     x="246.3871"
     y="68.050339"
     width="42.702049"
     height="42.702049"
     fill="#e6e6e6"
     id="rect458"
     style="stroke-width:0.5" />
  <rect
     x="254.92751"
     y="76.590759"
     width="25.621229"
     height="25.621229"
     fill="#cccccc"
     id="rect460"
     style="stroke-width:0.5" />
  <rect
     x="342.12958"
     y="68.050339"
     width="10.787885"
     height="42.702049"
     fill="#e6e6e6"
     id="rect462"
     style="stroke-width:0.5" />
  <rect
     x="342.12958"
     y="74.79277"
     width="10.787885"
     height="4.9444499"
     fill="#cccccc"
     id="rect464"
     style="stroke-width:0.5" />
  <rect
     x="342.12958"
     y="96.368546"
     width="10.787885"
     height="4.9444499"
     fill="#cccccc"
     id="rect466"
     style="stroke-width:0.5" />
  <rect
     x="325.49823"
     y="68.050339"
     width="10.787885"
     height="42.702049"
     fill="#e6e6e6"
     id="rect468"
     style="stroke-width:0.5" />
  <rect
     x="325.49823"
     y="74.79277"
     width="10.787885"
     height="4.9444499"
     fill="#cccccc"
     id="rect470"
     style="stroke-width:0.5" />
  <rect
     x="325.49823"
     y="96.368546"
     width="10.787885"
     height="4.9444499"
     fill="#cccccc"
     id="rect472"
     style="stroke-width:0.5" />
  <rect
     x="283.70474"
     y="221.53748"
     width="10.787885"
     height="42.702049"
     transform="rotate(-26.3396)"
     fill="#e6e6e6"
     id="rect474"
     style="stroke-width:0.5" />
  <rect
     x="283.70474"
     y="228.27988"
     width="10.787885"
     height="4.9444499"
     transform="rotate(-26.3396)"
     fill="#cccccc"
     id="rect476"
     style="stroke-width:0.5" />
  <rect
     x="283.70477"
     y="249.85565"
     width="10.787885"
     height="4.9444499"
     transform="rotate(-26.3396)"
     fill="#cccccc"
     id="rect478"
     style="stroke-width:0.5" />
  <polygon
     points="524.688,208.02 502.958,208.02 513.823,189.201 524.688,170.382 535.554,189.201 546.419,208.02 "
     fill="#e6e6e6"
     id="polygon480"
     transform="matrix(0.5,0,0,0.5,-1.9643555e-5,-2.0392783e-5)" />
  <polygon
     points="543.567,211.616 521.837,211.616 532.702,192.797 543.567,173.978 554.432,192.797 565.298,211.616 "
     fill="#e6e6e6"
     id="polygon482"
     transform="matrix(0.5,0,0,0.5,-1.9643555e-5,-2.0392783e-5)" />
  <circle
     cx="275.60431"
     cy="81.085709"
     r="3.1464651"
     fill="#e6e6e6"
     id="circle484"
     style="stroke-width:0.5" />
  <rect
     x="-401.01343"
     y="-46.474579"
     width="168.56073"
     height="4.9444499"
     transform="scale(-1)"
     fill="#e6e6e6"
     id="rect486"
     style="stroke-width:0.5" />
  <rect
     x="-387.0791"
     y="-42.878616"
     width="42.702049"
     height="42.702049"
     transform="scale(-1)"
     fill="#e6e6e6"
     id="rect488"
     style="stroke-width:0.5" />
  <rect
     x="-378.5387"
     y="-34.338211"
     width="25.621229"
     height="25.621229"
     transform="scale(-1)"
     fill="#cccccc"
     id="rect490"
     style="stroke-width:0.5" />
  <rect
     x="-291.33661"
     y="-42.878616"
     width="10.787885"
     height="42.702049"
     transform="scale(-1)"
     fill="#e6e6e6"
     id="rect492"
     style="stroke-width:0.5" />
  <rect
     x="-291.33661"
     y="-11.863434"
     width="10.787885"
     height="4.9444499"
     transform="scale(-1)"
     fill="#cccccc"
     id="rect494"
     style="stroke-width:0.5" />
  <rect
     x="-291.33661"
     y="-33.439209"
     width="10.787885"
     height="4.9444499"
     transform="scale(-1)"
     fill="#cccccc"
     id="rect496"
     style="stroke-width:0.5" />
  <rect
     x="-307.96796"
     y="-42.878616"
     width="10.787885"
     height="42.702049"
     transform="scale(-1)"
     fill="#e6e6e6"
     id="rect498"
     style="stroke-width:0.5" />
  <rect
     x="-307.96796"
     y="-11.863434"
     width="10.787885"
     height="4.9444499"
     transform="scale(-1)"
     fill="#cccccc"
     id="rect500"
     style="stroke-width:0.5" />
  <rect
     x="-307.96796"
     y="-33.439209"
     width="10.787885"
     height="4.9444499"
     transform="scale(-1)"
     fill="#cccccc"
     id="rect502"
     style="stroke-width:0.5" />
  <rect
     x="-253.88"
     y="77.650681"
     width="10.787885"
     height="42.702049"
     transform="rotate(-153.6604)"
     fill="#e6e6e6"
     id="rect504"
     style="stroke-width:0.5" />
  <rect
     x="-253.88"
     y="108.66586"
     width="10.787885"
     height="4.9444499"
     transform="rotate(-153.6604)"
     fill="#cccccc"
     id="rect506"
     style="stroke-width:0.5" />
  <rect
     x="-253.88"
     y="87.09008"
     width="10.787885"
     height="4.9444499"
     transform="rotate(-153.6604)"
     fill="#cccccc"
     id="rect508"
     style="stroke-width:0.5" />
  <polygon
     points="742.244,72.272 763.975,72.272 753.109,53.453 742.244,34.634 731.379,53.453 720.514,72.272 "
     fill="#e6e6e6"
     id="polygon510"
     transform="matrix(0.5,0,0,0.5,-1.9643555e-5,-2.0392783e-5)" />
  <polygon
     points="723.365,75.868 745.096,75.868 734.231,57.049 723.365,38.23 712.5,57.049 701.635,75.868 "
     fill="#e6e6e6"
     id="polygon512"
     transform="matrix(0.5,0,0,0.5,-1.9643555e-5,-2.0392783e-5)" />
  <circle
     cx="357.86188"
     cy="13.211914"
     r="3.1464651"
     fill="#e6e6e6"
     id="circle514"
     style="stroke-width:0.5" />
  <rect
     x="-401.01343"
     y="-182.22215"
     width="168.56073"
     height="4.9444499"
     transform="scale(-1)"
     fill="#e6e6e6"
     id="rect516"
     style="stroke-width:0.5" />
  <rect
     x="-387.0791"
     y="-178.62617"
     width="42.702049"
     height="42.702049"
     transform="scale(-1)"
     fill="#e6e6e6"
     id="rect518"
     style="stroke-width:0.5" />
  <rect
     x="-378.5387"
     y="-170.08577"
     width="25.621229"
     height="25.621229"
     transform="scale(-1)"
     fill="#cccccc"
     id="rect520"
     style="stroke-width:0.5" />
  <rect
     x="-291.33661"
     y="-178.62617"
     width="10.787885"
     height="42.702049"
     transform="scale(-1)"
     fill="#e6e6e6"
     id="rect522"
     style="stroke-width:0.5" />
  <rect
     x="-291.33661"
     y="-147.61101"
     width="10.787885"
     height="4.9444499"
     transform="scale(-1)"
     fill="#cccccc"
     id="rect524"
     style="stroke-width:0.5" />
  <rect
     x="-291.33661"
     y="-169.18678"
     width="10.787885"
     height="4.9444499"
     transform="scale(-1)"
     fill="#cccccc"
     id="rect526"
     style="stroke-width:0.5" />
  <rect
     x="-307.96796"
     y="-178.62617"
     width="10.787885"
     height="42.702049"
     transform="scale(-1)"
     fill="#e6e6e6"
     id="rect528"
     style="stroke-width:0.5" />
  <rect
     x="-307.96796"
     y="-147.61101"
     width="10.787885"
     height="4.9444499"
     transform="scale(-1)"
     fill="#cccccc"
     id="rect530"
     style="stroke-width:0.5" />
  <rect
     x="-307.96796"
     y="-169.18678"
     width="10.787885"
     height="4.9444499"
     transform="scale(-1)"
     fill="#cccccc"
     id="rect532"
     style="stroke-width:0.5" />
  <rect
     x="-314.10995"
     y="-44.003574"
     width="10.787885"
     height="42.702049"
     transform="rotate(-153.6604)"
     fill="#e6e6e6"
     id="rect534"
     style="stroke-width:0.5" />
  <rect
     x="-314.10995"
     y="-12.988404"
     width="10.787885"
     height="4.9444499"
     transform="rotate(-153.6604)"
     fill="#cccccc"
     id="rect536"
     style="stroke-width:0.5" />
  <rect
     x="-314.10989"
     y="-34.564167"
     width="10.787885"
     height="4.9444499"
     transform="rotate(-153.6604)"
     fill="#cccccc"
     id="rect538"
     style="stroke-width:0.5" />
  <polygon
     points="742.244,343.768 763.975,343.768 753.109,324.948 742.244,306.129 731.379,324.948 720.514,343.768 "
     fill="#e6e6e6"
     id="polygon540"
     transform="matrix(0.5,0,0,0.5,-1.9643555e-5,-2.0392783e-5)" />
  <polygon
     points="723.365,347.364 745.096,347.364 734.231,328.544 723.365,309.725 712.5,328.544 701.635,347.364 "
     fill="#e6e6e6"
     id="polygon542"
     transform="matrix(0.5,0,0,0.5,-1.9643555e-5,-2.0392783e-5)" />
  <circle
     cx="357.86188"
     cy="148.95949"
     r="3.1464651"
     fill="#e6e6e6"
     id="circle544"
     style="stroke-width:0.5" />
  <ellipse
     cx="198.56471"
     cy="281.35556"
     rx="198.56471"
     ry="14.10261"
     fill="#e6e6e6"
     id="ellipse546"
     style="stroke-width:0.5" />
  <path
     d="m 353.69339,289.25299 c -32.37758,-5.7627 -67.78372,-4.80474 -104.92341,0 16.92772,-14.29065 31.53731,-28.58127 14.60959,-42.87192 33.01964,6.812 37.64459,6.12254 74.37608,0 -8.51965,14.29065 7.41807,28.58127 15.93774,42.87192 z"
     fill="#6c63ff"
     id="path548"
     style="stroke-width:0.5" />
  <path
     d="m 353.69339,289.25299 c -32.37758,-5.7627 -67.78372,-4.80474 -104.92341,0 16.92772,-14.29065 31.53731,-28.58127 14.60959,-42.87192 33.01964,6.812 37.64459,6.12254 74.37608,0 -8.51965,14.29065 7.41807,28.58127 15.93774,42.87192 z"
     opacity="0.2"
     id="path550"
     style="stroke-width:0.5" />
  <path
     d="m 345.79593,283.15614 c -27.50353,-4.59991 -57.57972,-3.83525 -89.1285,0 14.37947,-11.40708 26.78979,-22.81416 12.41029,-34.22125 28.04894,5.4375 31.97767,4.88714 63.17969,0 -7.23711,11.40709 6.30139,22.81417 13.53852,34.22125 z"
     fill="#6c63ff"
     id="path552"
     style="stroke-width:0.5" />
  <circle
     cx="335.32013"
     cy="250.12202"
     r="14.654545"
     fill="#2f2e41"
     id="circle554"
     style="stroke-width:0.5" />
  <polygon
     points="538.72,517.019 504.873,466.249 536.463,466.249 537.591,466.249 557.899,469.634 568.053,498.967 "
     fill="#a0616a"
     id="polygon556"
     transform="matrix(0.5,0,0,0.5,-1.9643555e-5,-2.0392783e-5)" />
  <circle
     cx="297.565"
     cy="231.99641"
     r="23.692381"
     fill="#a0616a"
     id="circle558"
     style="stroke-width:0.5" />
  <path
     d="m 166.69281,145.68845 c 0,0 -57.53864,6.20514 -67.6925,5.07694 -10.15386,-1.12821 -14.66671,-2.25642 -14.66671,-2.25642 0,0 -6.76926,9.02567 -3.38463,12.9744 a 24.410965,24.410965 0 0 0 6.76925,5.64104 c 0,0 6.20515,-1.69231 10.718,0 4.51286,1.69232 50.20529,9.02567 58.10275,2.25642 7.89746,-6.76925 10.15384,-23.69238 10.15384,-23.69238 z"
     fill="#2f2e41"
     id="path560"
     style="stroke-width:0.5" />
  <path
     d="m 170.64154,271.48371 c 0,0 -37.795,-10.718 -44.56424,-58.10275 v -4.51283 c 0,0 -7.47808,13.11914 -10.15388,15.79493 -3.10258,3.10257 -14.10261,31.02574 -13.5385,33.84626 0.56411,2.82052 0,3.94873 0,3.94873 l -16.35903,-1.69231 v -5.07695 c 0,0 8.74362,-26.23085 9.30773,-32.436 0.5641,-6.20515 21.718,-49.35913 21.718,-49.35913 0,0 7.89746,-16.35902 21.43596,0 13.53851,16.35903 14.66671,27.64111 14.66671,27.64111 l 17.48724,33.84626 z"
     fill="#2f2e41"
     id="path562"
     style="stroke-width:0.5" />
  <path
     d="m 86.02589,146.81666 -18.05134,-6.20515 c 0,0 -16.92313,-12.4103 -12.9744,0 3.94873,12.41029 22.00007,39.4873 27.077,36.66678 5.07694,-2.82052 11.18276,-9.82159 9.82216,-10.83389 -1.36059,-1.0123 -10.38626,-8.34566 -5.87342,-19.62774 z"
     fill="#2f2e41"
     id="path564"
     style="stroke-width:0.5" />
  <path
     d="m 88.20782,252.35844 -14.5719,7.1165 c 0,0 -17.62183,2.71105 -7.79427,7.79427 9.82756,5.08323 36.93807,10.50532 38.2936,5.761 1.35552,-4.74432 0.8177,-12.6182 -0.60779,-12.40896 -1.4255,0.20923 -11.25306,1.22587 -15.31964,-8.26281 z"
     fill="#2f2e41"
     id="path566"
     style="stroke-width:0.5" />
  <path
     d="m 163.30818,234.25282 c 0,0 -7.33336,31.58985 5.07694,38.3591 12.41029,6.76925 99.28236,7.89746 106.0516,-4.51286 6.76925,-12.41031 3.38463,-12.41029 3.38463,-12.41029 l -18.05134,-20.30776 14.66671,-1.12819 c 0,0 0,-4.51283 -5.07693,-5.07693 -5.07694,-0.5641 -20.87186,-6.20515 -34.41037,-2.25642 -13.5385,3.94873 -21.43596,-7.89746 -21.43596,-7.89746 z"
     fill="#575a89"
     id="path568"
     style="stroke-width:0.5" />
  <polygon
     points="443.95,265.428 307.437,271.069 288.257,375.993 420.258,360.198 "
     fill="#3f3d56"
     id="polygon570"
     transform="matrix(0.5,0,0,0.5,-1.9643555e-5,-2.0392783e-5)" />
  <polygon
     points="438.873,269.377 311.386,275.018 295.591,368.659 415.745,354.557 "
     fill="#ffffff"
     id="polygon572"
     transform="matrix(0.5,0,0,0.5,-1.9643555e-5,-2.0392783e-5)" />
  <polygon
     points="322.104,480.916 325.499,479.618 326.616,473.019 292.77,377.121 288.257,375.993 286.001,380.505 "
     fill="#b3b3b3"
     id="polygon574"
     transform="matrix(0.5,0,0,0.5,-1.9643555e-5,-2.0392783e-5)" />
  <polygon
     points="420.258,360.198 288.257,374.864 324.36,479.788 460.873,459.48 "
     fill="#d0cde1"
     id="polygon576"
     transform="matrix(0.5,0,0,0.5,-1.9643555e-5,-2.0392783e-5)" />
  <polygon
     points="405.591,360.198 306.309,371.48 306.309,377.121 406.719,365.839 "
     fill="#3f3d56"
     id="polygon578"
     transform="matrix(0.5,0,0,0.5,-1.9643555e-5,-2.0392783e-5)" />
  <polygon
     points="408.976,372.608 308.565,382.762 324.36,426.762 427.027,414.352 "
     fill="#3f3d56"
     id="polygon580"
     transform="matrix(0.5,0,0,0.5,-1.9643555e-5,-2.0392783e-5)" />
  <path
     d="m 218.5904,222.40663 -1.69231,-4.51283 c 0,0 -12.9744,-22.56417 -19.74365,-18.05134 -6.76926,4.51284 14.10261,26.5129 14.10261,26.5129 h 6.76925 z"
     fill="#a0616a"
     id="path582"
     style="stroke-width:0.5" />
  <path
     d="m 175.71847,225.79126 -1.69231,-6.76925 c 0,0 -4.51283,-20.87186 3.38463,-19.74365 7.89746,1.12821 10.15388,20.87186 10.15388,20.87186 l -0.56411,4.51283 z"
     fill="#a0616a"
     id="path584"
     style="stroke-width:0.5" />
  <path
     d="m 189.25698,222.97074 c 0,0 -14.66671,-2.25642 -15.23082,1.12821 -0.5641,3.38462 -3.38462,54.154 10.718,55.84632 14.10263,1.69233 84.05155,9.02567 76.71819,-8.46156 -7.33335,-17.48724 -18.61544,-15.23082 -18.61544,-15.23082 l -47.94889,5.07694 z"
     fill="#575a89"
     id="path586"
     style="stroke-width:0.5" />
  <polygon
     points="442.258,480.352 467.078,458.916 437.181,438.044 417.437,453.275 "
     fill="#575a89"
     id="polygon588"
     transform="matrix(0.5,0,0,0.5,-1.9643555e-5,-2.0392783e-5)" />
  <polygon
     points="401.642,516.455 386.976,479.224 391.488,522.096 469.335,517.583 "
     opacity="0.2"
     id="polygon590"
     transform="matrix(0.5,0,0,0.5,-1.9643555e-5,-2.0392783e-5)" />
  <circle
     cx="309.26031"
     cy="236.30138"
     r="28.205215"
     fill="#2f2e41"
     id="circle592"
     style="stroke-width:0.5" />
  <polygon
     points="332.822,281.71 328.309,307.736 398.258,305.301 405.027,279.531 "
     fill="#6c63ff"
     id="polygon594"
     transform="matrix(0.5,0,0,0.5,-1.9643555e-5,-2.0392783e-5)" />
  <polygon
     points="311.386,318.239 310.258,322.403 416.309,319.018 417.437,314.505 "
     fill="#e6e6e6"
     id="polygon596"
     transform="matrix(0.5,0,0,0.5,-1.9643555e-5,-2.0392783e-5)" />
  <polygon
     points="309.129,329.521 308.001,333.685 414.053,330.3 415.181,325.787 "
     fill="#e6e6e6"
     id="polygon598"
     transform="matrix(0.5,0,0,0.5,-1.9643555e-5,-2.0392783e-5)" />
  <polygon
     points="308.001,338.546 306.873,342.71 412.924,339.326 414.053,334.813 "
     fill="#e6e6e6"
     id="polygon600"
     transform="matrix(0.5,0,0,0.5,-1.9643555e-5,-2.0392783e-5)" />
  <metadata
     id="metadata623">
    <rdf:RDF>
      <cc:Work
         rdf:about="">
        <dc:title>researching</dc:title>
      </cc:Work>
    </rdf:RDF>
  </metadata>
</svg>
