<svg height="590.91632" viewBox="0 0 802.02697 590.91632" width="802.02697" xmlns="http://www.w3.org/2000/svg"><path d="m464.90551 218.80786h337.12145v9.8889h-337.12145z" fill="#e6e6e6"/><path d="m492.77422 136.10073h85.4041v85.4041h-85.4041z" fill="#e6e6e6"/><path d="m509.85504 153.18155h51.24246v51.24246h-51.24246z" fill="#ccc"/><path d="m684.2592 136.10073h21.57577v85.4041h-21.57577z" fill="#e6e6e6"/><path d="m684.2592 149.58559h21.57577v9.8889h-21.57577z" fill="#ccc"/><path d="m684.2592 192.73713h21.57577v9.8889h-21.57577z" fill="#ccc"/><path d="m650.99655 136.10073h21.57577v85.4041h-21.57577z" fill="#e6e6e6"/><path d="m650.99655 149.58559h21.57577v9.8889h-21.57577z" fill="#ccc"/><path d="m650.99655 192.73713h21.57577v9.8889h-21.57577z" fill="#ccc"/><path d="m921.90231 290.64257h21.57577v85.4041h-21.57577z" fill="#e6e6e6" transform="matrix(.89617999 -.44369069 .44369069 .89617999 -250.05651 293.89202)"/><path d="m911.13272 306.64743h21.57577v9.8889h-21.57577z" fill="#ccc" transform="matrix(.89617999 -.44369069 .44369069 .89617999 -241.52311 286.85528)"/><path d="m930.27866 345.31898h21.57577v9.8889h-21.57577z" fill="#ccc" transform="matrix(.89617999 -.44369069 .44369069 .89617999 -256.69359 299.36504)"/><g fill="#e6e6e6"><path d="m524.688 170.382 10.866 18.819 10.865 18.819h-21.731-21.73l10.865-18.819z"/><path d="m543.567 173.978 10.865 18.819 10.866 18.819h-21.731-21.73l10.865-18.819z"/><circle cx="551.2086" cy="162.17145" r="6.29293"/><path d="m663.89203 237.60213h337.12145v9.8889h-337.12145z" transform="matrix(-1 0 0 -1 1465.91899 330.55131)"/><path d="m887.74067 154.895h85.4041v85.4041h-85.4041z" transform="matrix(-1 0 0 -1 1661.89893 240.65226)"/></g><path d="m904.82149 171.97582h51.24246v51.24246h-51.24246z" fill="#ccc" transform="matrix(-1 0 0 -1 1661.89893 240.65226)"/><path d="m760.08402 154.895h21.57577v85.4041h-21.57577z" fill="#e6e6e6" transform="matrix(-1 0 0 -1 1342.75729 240.65226)"/><path d="m760.08402 168.37986h21.57577v9.8889h-21.57577z" fill="#ccc" transform="matrix(-1 0 0 -1 1342.75729 192.10677)"/><path d="m760.08402 211.5314h21.57577v9.8889h-21.57577z" fill="#ccc" transform="matrix(-1 0 0 -1 1342.75729 278.40986)"/><path d="m793.34667 154.895h21.57577v85.4041h-21.57577z" fill="#e6e6e6" transform="matrix(-1 0 0 -1 1409.28259 240.65226)"/><path d="m793.34667 168.37986h21.57577v9.8889h-21.57577z" fill="#ccc" transform="matrix(-1 0 0 -1 1409.28259 192.10677)"/><path d="m793.34667 211.5314h21.57577v9.8889h-21.57577z" fill="#ccc" transform="matrix(-1 0 0 -1 1409.28259 278.40986)"/><path d="m721.42742 154.895h21.57577v85.4041h-21.57577z" fill="#e6e6e6" transform="matrix(-.89617999 -.44369069 .44369069 -.89617999 1101.7535 545.01488)"/><path d="m732.19702 170.89985h21.57577v9.8889h-21.57577z" fill="#ccc" transform="matrix(-.89617999 -.44369069 .44369069 -.89617999 1131.82608 508.54612)"/><path d="m713.05107 209.5714h21.57577v9.8889h-21.57577z" fill="#ccc" transform="matrix(-.89617999 -.44369069 .44369069 -.89617999 1078.36372 573.37946)"/><g fill="#e6e6e6"><path d="m742.244 34.634-10.865 18.819-10.865 18.819h21.73 21.731l-10.866-18.819z"/><path d="m723.365 38.23-10.865 18.819-10.865 18.819h21.73 21.731l-10.865-18.819z"/><circle cx="715.72387" cy="26.42388" r="6.29293"/><path d="m663.89203 509.09727h337.12145v9.8889h-337.12145z" transform="matrix(-1 0 0 -1 1465.91899 873.5416)"/><path d="m887.74067 426.39014h85.4041v85.4041h-85.4041z" transform="matrix(-1 0 0 -1 1661.89893 783.64254)"/></g><path d="m904.82149 443.47096h51.24246v51.24246h-51.24246z" fill="#ccc" transform="matrix(-1 0 0 -1 1661.89893 783.64254)"/><path d="m760.08402 426.39014h21.57577v85.4041h-21.57577z" fill="#e6e6e6" transform="matrix(-1 0 0 -1 1342.75729 783.64254)"/><path d="m760.08402 439.875h21.57577v9.8889h-21.57577z" fill="#ccc" transform="matrix(-1 0 0 -1 1342.75729 735.09706)"/><path d="m760.08402 483.02655h21.57577v9.8889h-21.57577z" fill="#ccc" transform="matrix(-1 0 0 -1 1342.75729 821.40015)"/><path d="m793.34667 426.39014h21.57577v85.4041h-21.57577z" fill="#e6e6e6" transform="matrix(-1 0 0 -1 1409.28259 783.64254)"/><path d="m793.34667 439.875h21.57577v9.8889h-21.57577z" fill="#ccc" transform="matrix(-1 0 0 -1 1409.28259 735.09706)"/><path d="m793.34667 483.02655h21.57577v9.8889h-21.57577z" fill="#ccc" transform="matrix(-1 0 0 -1 1409.28259 821.40015)"/><path d="m721.42742 426.39014h21.57577v85.4041h-21.57577z" fill="#e6e6e6" transform="matrix(-.89617999 -.44369069 .44369069 -.89617999 981.29362 1059.81853)"/><path d="m732.19702 442.395h21.57577v9.8889h-21.57577z" fill="#ccc" transform="matrix(-.89617999 -.44369069 .44369069 -.89617999 1011.3662 1023.34977)"/><path d="m713.05107 481.06655h21.57577v9.8889h-21.57577z" fill="#ccc" transform="matrix(-.89617999 -.44369069 .44369069 -.89617999 957.90384 1088.18312)"/><path d="m742.244 306.129-10.865 18.819-10.865 18.82h21.73 21.731l-10.866-18.82z" fill="#e6e6e6"/><path d="m723.365 309.725-10.865 18.819-10.865 18.82h21.73 21.731l-10.865-18.82z" fill="#e6e6e6"/><circle cx="715.72387" cy="297.91903" fill="#e6e6e6" r="6.29293"/><ellipse cx="397.12944" cy="562.7111" fill="#e6e6e6" rx="397.12944" ry="28.20522"/><path d="m906.37333 733.04786c-64.75515-11.52541-135.56743-9.60949-209.84681 0 33.85544-28.5813 63.07462-57.16255 29.21918-85.74385 66.03927 13.624 75.28918 12.24508 148.75216 0-17.0393 28.5813 14.83614 57.16255 31.87547 85.74385z" fill="#6c63ff" transform="translate(-198.98652 -154.54184)"/><path d="m906.37333 733.04786c-64.75515-11.52541-135.56743-9.60949-209.84681 0 33.85544-28.5813 63.07462-57.16255 29.21918-85.74385 66.03927 13.624 75.28918 12.24508 148.75216 0-17.0393 28.5813 14.83614 57.16255 31.87547 85.74385z" opacity=".2" transform="translate(-198.98652 -154.54184)"/><path d="m890.57841 720.85416c-55.00706-9.19982-115.15943-7.6705-178.257 0 28.75895-22.81416 53.57959-45.62832 24.82059-68.4425 56.09788 10.875 63.95533 9.77428 126.35937 0-14.47422 22.81418 12.60279 45.62834 27.07704 68.4425z" fill="#6c63ff" transform="translate(-198.98652 -154.54184)"/><circle cx="670.64039" cy="500.24412" fill="#2f2e41" r="29.30909"/><path d="m537.591 466.249 20.308 3.385 10.154 29.333-29.333 18.052-33.847-50.77h31.59z" fill="#a0616a"/><circle cx="595.13005" cy="463.99285" fill="#a0616a" r="47.38476"/><path d="m532.37217 445.91877s-115.07728 12.41029-135.385 10.15388-29.33342-4.51284-29.33342-4.51284-13.53851 18.05134-6.76925 25.9488a48.82193 48.82193 0 0 0 13.5385 11.28209s12.41029-3.38463 21.436 0 100.41057 18.05133 116.20549 4.51283 20.30768-47.38476 20.30768-47.38476z" fill="#2f2e41" transform="translate(-198.98652 -154.54184)"/><path d="m540.26963 697.50929s-75.59-21.436-89.12848-116.20549v-9.02567s-14.95615 26.23828-20.30776 31.58987c-6.20515 6.20514-28.20522 62.05147-27.077 67.69251s0 7.89746 0 7.89746l-32.71805-3.38462v-10.1539s17.48724-52.4617 18.61545-64.872 43.436-98.71825 43.436-98.71825 15.79492-32.71805 42.87193 0 29.33342 55.28222 29.33342 55.28222l34.97447 67.69252z" fill="#2f2e41" transform="translate(-198.98652 -154.54184)"/><path d="m371.03833 448.17519-36.10267-12.4103s-33.84626-24.82059-25.9488 0 44.00013 78.9746 54.154 73.33356 22.36551-19.64318 19.64432-21.66778-20.77252-16.69131-11.74685-39.25548z" fill="#2f2e41" transform="translate(-198.98652 -154.54184)"/><path d="m375.4022 659.25875-29.14381 14.233s-35.24366 5.4221-15.58854 15.58855 73.87615 21.01064 76.5872 11.522 1.63541-25.2364-1.21558-24.81793-22.50612 2.45174-30.63927-16.52562z" fill="#2f2e41" transform="translate(-198.98652 -154.54184)"/><path d="m525.60291 623.04752s-14.66671 63.17969 10.15388 76.71819 198.56472 15.79492 212.10321-9.02571 6.76926-24.82059 6.76926-24.82059l-36.10268-40.61551 29.33342-2.25638s0-9.02567-10.15387-10.15387-41.74372-12.4103-68.82073-4.51284-42.87193-15.79492-42.87193-15.79492z" fill="#575a89" transform="translate(-198.98652 -154.54184)"/><path d="m307.437 271.069-19.18 104.924 132.001-15.795 23.692-94.77z" fill="#3f3d56"/><path d="m311.386 275.018-15.795 93.641 120.154-14.102 23.128-85.18z" fill="#fff"/><path d="m292.77 377.121-4.513-1.128-2.256 4.512 36.103 100.411 3.395-1.298 1.117-6.599z" fill="#b3b3b3"/><path d="m288.257 374.864 36.103 104.924 136.513-20.308-40.615-99.282z" fill="#d0cde1"/><path d="m306.309 371.48v5.641l100.41-11.282-1.128-5.641z" fill="#3f3d56"/><path d="m308.565 382.762 15.795 44 102.667-12.41-18.051-41.744z" fill="#3f3d56"/><path d="m636.16736 599.35514-3.38463-9.02567s-25.94879-45.12834-39.4873-36.10267 28.20522 53.0258 28.20522 53.0258h13.5385z" fill="#a0616a" transform="translate(-198.98652 -154.54184)"/><path d="m550.4235 606.12439-3.38462-13.5385s-9.02567-41.74372 6.76925-39.4873 20.30776 41.74372 20.30776 41.74372l-1.12821 9.02567z" fill="#a0616a" transform="translate(-198.98652 -154.54184)"/><path d="m577.50051 600.48335s-29.33342-4.51283-30.46163 2.25642-6.76925 108.308 21.436 111.69265 168.10309 18.05134 153.43638-16.92313-37.23089-30.46163-37.23089-30.46163l-95.89777 10.15388z" fill="#575a89" transform="translate(-198.98652 -154.54184)"/><path d="m467.078 458.916-29.897-20.872-19.744 15.231 24.821 27.077z" fill="#575a89"/><path d="m386.976 479.224 4.512 42.872 77.847-4.513-67.693-1.128z" opacity=".2"/><circle cx="618.52064" cy="472.60281" fill="#2f2e41" r="56.41043"/><path d="m328.309 307.736 69.949-2.435 6.769-25.77-72.205 2.179z" fill="#6c63ff"/><path d="m310.258 322.403 106.051-3.385 1.128-4.513-106.051 3.734z" fill="#e6e6e6"/><path d="m308.001 333.685 106.052-3.385 1.128-4.513-106.052 3.734z" fill="#e6e6e6"/><path d="m306.873 342.71 106.051-3.384 1.129-4.513-106.052 3.733z" fill="#e6e6e6"/></svg>